<svg
        xmlns="http://www.w3.org/2000/svg"
        xml:space="preserve"
        width="45"
        height="45"
        viewBox="0 0 512.001 512.001"
        cursor="pointer"
>
    <path
            fill="#4CF5CB"
            d="M258.637 8.192v495.616C394.295 502.403 503.83 391.985 503.83 256S394.295 9.597 258.637 8.192z"
    />
    <path
            fill="#D1FDF2"
            d="M258.637 8.192C370.231 9.902 460.256 120.2 460.256 256s-90.025 246.098-201.619 247.808c-.871.011-1.754.022-2.636.022-24.38 0-47.943-3.53-70.198-10.087a246.696 246.696 0 0 1-62.377-28.334L8.171 503.83l38.422-115.254C22.267 350.241 8.171 304.771 8.171 256c0-136.867 110.962-247.83 247.83-247.83.882 0 1.764.011 2.636.022z"
    />
    <path
            fill="#68AEF4"
            d="m426.802 239.66-42.932-98.043c-24.532-27.419-57.747-46.897-95.33-54.109 0 0-.054 336.438 0 336.972 79.196-15.196 139.035-84.85 139.035-168.48 0-5.512-.261-10.97-.773-16.34z"
    />
    <path
            fill="#7CC8EF"
            d="M359.523 141.617c-18.541-25.6-43.215-44.272-71.179-52.518l-64.882-1.58c-23.988 4.597-46.2 14.194-65.503 27.67L86.583 228.766A171.32 171.32 0 0 0 84.426 256c0 8.443.61 16.754 1.797 24.87l44.457 92.302c24.26 25.949 56.483 44.348 92.781 51.32 0-.011 64.882-1.59 64.882-1.59 61.113-18.007 106.55-85.907 106.55-166.901l-35.37-114.384z"
    />
    <path
            fill="#276AAD"
            d="M383.881 141.606c-.011.011-24.358.011-24.358.011L394.894 256h15.567c9.031 0 16.34-7.321 16.34-16.34-3.54-37.507-19.161-71.506-42.92-98.054z"
    />
    <path
            fill="#3891E9"
            d="M394.894 256h-29.957v-27.234H256.001v-32.681h32.681c0-9.02 7.321-16.34 16.34-16.34h10.894v-38.128h43.607c21.994 30.361 35.371 70.438 35.371 114.383z"
    />
    <path
            d="M315.915 261.447v103.489h-38.128c-11.983 0-21.787-9.804-21.787-21.787v-38.128h-10.894c-12.037 0-21.787-9.75-21.787-21.787 0-12.037 9.75-21.787 21.787-21.787h70.809z"
            fill="#3891e9"
    />
    <path
            d="m288.344 422.901-30.546 4.662a172.129 172.129 0 0 0 30.742-3.072 24.926 24.926 0 0 0-.196-1.59zM257.798 84.436l30.546 4.662c.087-.523.142-1.046.196-1.58a171.214 171.214 0 0 0-30.742-3.082z"
            fill="#f0ebea"
    />
    <path
            d="M288.344 89.099c-2.255 15.828-15.883 28.007-32.343 28.007-17.005 0-30.981-12.996-32.539-29.587a171.3 171.3 0 0 1 34.336-3.083 114.376 114.376 0 0 1 30.546 4.663zM256.001 394.894c16.46 0 30.088 12.179 32.343 28.007a114.329 114.329 0 0 1-30.546 4.662c-.599.011-1.198.011-1.797.011a172.2 172.2 0 0 1-32.539-3.083c1.557-16.601 15.534-29.597 32.539-29.597z"
            fill="#fff"
    />
    <path
            d="M103.49 272.34c-7.017 0-13.239 3.331-17.224 8.483-.014.017-.028.029-.042.047 5.142 35.437 21.112 67.355 44.457 92.302l24.323-29.543c7.617-9.251 13.848-26.624 13.848-38.607V272.34H103.49zM157.958 115.189v113.577H86.583c7.473-46.93 33.988-87.508 71.375-113.577z"
            fill="#3891e9"
    />
    <path d="M256.001 435.745c99.111 0 179.745-80.633 179.745-179.745S355.113 76.255 256.001 76.255 76.256 156.889 76.256 256s80.633 179.745 179.745 179.745zM94.933 283.558a13.464 13.464 0 0 1 8.558-3.047h57.191v24.511c0 10.045-5.602 25.659-11.985 33.414l-18.191 22.094c-18.063-21.649-30.636-48.024-35.573-76.972zm138.561 134.29c3.759-8.781 12.421-14.784 22.506-14.784s18.748 6.002 22.506 14.784A164.01 164.01 0 0 1 256 419.405a164.327 164.327 0 0 1-22.506-1.557zm61.311-3.112c-5.375-16.462-20.734-28.013-38.804-28.013-18.069 0-33.428 11.551-38.804 28.013-28.94-7.075-54.878-21.877-75.5-42.09l19.616-23.825c8.81-10.701 15.711-29.94 15.711-43.8V272.34a8.17 8.17 0 0 0-8.17-8.17H103.49c-3.68 0-7.246.67-10.572 1.924-.205-3.34-.321-6.703-.321-10.094 0-6.449.388-12.808 1.118-19.064h56.074v2.723c0 4.512 3.657 8.17 8.17 8.17s8.17-3.658 8.17-8.17V119.602c15.406-10.184 32.627-17.83 51.068-22.338 5.377 16.464 20.736 28.013 38.804 28.013 18.07 0 33.429-11.55 38.804-28.013 26.042 6.367 49.654 18.99 69.15 36.183h-64.38c-4.513 0-8.17 3.658-8.17 8.17s3.657 8.17 8.17 8.17h8.17v21.787h-2.723c-10.652 0-19.738 6.83-23.111 16.34h-25.91a8.17 8.17 0 0 0-8.17 8.17v24.511h-13.617a8.17 8.17 0 0 0-8.17 8.17 8.17 8.17 0 0 0 8.17 8.17h89.872v16.34h-78.979c-16.518 0-29.957 13.438-29.957 29.957s13.439 29.957 29.957 29.957h2.723v29.957c0 16.519 13.439 29.957 29.957 29.957h38.128a8.17 8.17 0 0 0 8.17-8.17v-35.404a8.17 8.17 0 0 0-8.17-8.17 8.17 8.17 0 0 0-8.17 8.17v27.234h-29.957c-7.509 0-13.617-6.108-13.617-13.617v-38.128a8.17 8.17 0 0 0-8.17-8.17h-10.894c-7.509 0-13.617-6.108-13.617-13.617s6.108-13.617 13.617-13.617h62.638v27.234a8.17 8.17 0 0 0 8.17 8.17 8.17 8.17 0 0 0 8.17-8.17v-27.234h8.17a8.17 8.17 0 0 0 8.17-8.17v-24.511h16.34v46.298a8.17 8.17 0 0 0 8.17 8.17 8.17 8.17 0 0 0 8.17-8.17V264.17h37.36c3.1 0 6.063-.587 8.797-1.642-2.916 73.845-55.064 135.243-124.457 152.208zm70.132-194.14H264.171v-16.34h24.511a8.17 8.17 0 0 0 8.17-8.17c0-4.506 3.665-8.17 8.17-8.17h10.894a8.17 8.17 0 0 0 8.17-8.17v-29.957h55.986c21.239 24.774 35.203 55.955 38.548 90.206-.176 4.35-3.76 7.837-8.153 7.837h-37.36v-19.064a8.17 8.17 0 0 0-8.17-8.172zm-86.43-126.442c-3.758 8.781-12.42 14.783-22.506 14.783-10.085 0-18.747-6.002-22.506-14.784a164.327 164.327 0 0 1 22.506-1.557c7.635 0 15.146.539 22.506 1.558zm-128.719 37.775v88.666H96.471c7.789-35.12 26.908-66.025 53.317-88.666z"/>
    <path d="M348.596 321.362a8.17 8.17 0 0 0-8.17 8.17v10.894a8.17 8.17 0 0 0 8.17 8.17 8.17 8.17 0 0 0 8.17-8.17v-10.894a8.17 8.17 0 0 0-8.17-8.17zM234.213 171.574a8.17 8.17 0 0 0 8.17-8.17V152.51c0-4.512-3.657-8.17-8.17-8.17s-8.17 3.658-8.17 8.17v10.894a8.17 8.17 0 0 0 8.17 8.17z"/>
    <path d="M437.02 74.981C388.668 26.629 324.381 0 256.001 0 193.889 0 133.983 22.533 87.316 63.449a8.17 8.17 0 1 0 10.773 12.286c43.684-38.301 99.765-59.394 157.912-59.394 132.149 0 239.66 107.51 239.66 239.66s-107.51 239.66-239.66 239.66c-45.563 0-89.893-12.846-128.198-37.146a8.17 8.17 0 0 0-6.961-.852l-99.753 33.251 33.251-99.752a8.168 8.168 0 0 0-.852-6.96C29.186 345.894 16.341 301.563 16.341 256c0-58.145 21.093-114.226 59.394-157.913a8.171 8.171 0 0 0-12.287-10.773C22.534 133.983.001 193.89.001 256c0 47.361 12.995 93.478 37.622 133.639L.42 501.247a8.17 8.17 0 0 0 10.336 10.335l111.608-37.202C162.523 499.005 208.641 512 256.001 512c68.38 0 132.667-26.628 181.019-74.981S512 324.38 512 256s-26.628-132.667-74.98-181.019z"/>
</svg>